<svg width="250" height="150" viewBox="0 0 250 150" fill="none" xmlns="http://www.w3.org/2000/svg">
<g clip-path="url(#clip0_3001_8)">
<path d="M176.854 74.8408C176.918 74.809 176.939 74.7878 176.96 74.7878C181.349 74.8249 185.769 74.2571 190.101 75.1804C194.432 76.1037 197.644 79.1176 198.611 83.8879C199.309 86.9861 199.054 90.2256 197.88 93.1737C197.333 94.6055 196.465 95.8903 195.344 96.9276C194.224 97.965 192.881 98.7268 191.42 99.1537C189.777 99.6403 188.08 99.9149 186.369 99.9709C183.394 100.104 180.403 100.013 177.433 100.013C177.259 100.013 177.086 99.9868 176.854 99.9709V74.8408ZM182.111 87.3369V94.4896C182.111 94.9035 182.111 95.259 182.679 95.2378C184.292 95.1953 185.922 95.2908 187.525 95.1317C189.901 94.9035 191.835 93.8157 192.829 91.4651C193.671 89.3899 193.854 87.1022 193.355 84.9173C192.734 81.8025 190.647 79.8658 187.572 79.6111C185.996 79.4837 184.445 79.5421 182.884 79.4625C182.258 79.4307 182.116 79.6694 182.127 80.2637V87.3316" fill="white"/>
<path d="M147.208 100.013C145.105 100.013 143.245 100.013 141.363 100.013C141.148 99.9666 140.959 99.8372 140.837 99.6525C138.834 96.9994 136.869 94.3463 134.85 91.741C134.576 91.4399 134.202 91.251 133.799 91.2104C132.963 91.1096 130.598 91.1626 130.598 91.1626C130.583 91.4153 130.583 91.6687 130.598 91.9214V98.9946V99.9709H125.341V74.7984C125.524 74.7661 125.708 74.7449 125.893 74.7347C129.509 74.7347 133.121 74.7347 136.737 74.7824C138.54 74.8061 140.304 75.3154 141.846 76.2576C143.991 77.5523 145 79.5527 145.19 82.0095C145.263 83.1176 145.18 84.2307 144.942 85.3152C144.417 87.6552 142.903 89.1781 140.795 90.0908L139.901 90.4994L147.208 99.9868M130.598 86.6258H135.523C135.95 86.642 136.378 86.6153 136.8 86.5463C138.903 86.1218 139.954 84.843 139.875 82.8797C139.791 80.996 138.608 79.7543 136.506 79.5952C134.719 79.4572 132.921 79.5262 131.123 79.489C130.729 79.489 130.598 79.6429 130.598 80.0196V82.9752V86.6152V86.6258Z" fill="white"/>
<path d="M174.416 100.008C172.655 100.008 170.994 100.008 169.327 100.008C169.143 100.008 168.886 99.7056 168.802 99.4774C168.323 98.3047 167.882 97.1215 167.461 95.9382C167.422 95.7408 167.31 95.5656 167.148 95.4476C166.987 95.3296 166.787 95.2774 166.589 95.3014C163.249 95.3227 159.911 95.3227 156.575 95.3014C156.365 95.2733 156.152 95.3274 155.98 95.4527C155.808 95.578 155.69 95.765 155.65 95.9753C155.224 97.1851 154.73 98.379 154.231 99.5623C154.152 99.748 153.915 99.9974 153.747 100.003C152.081 100.04 150.42 100.003 148.638 100.003C149.211 98.5382 149.726 97.1798 150.267 95.8268C152.99 89.0065 155.711 82.1881 158.431 75.3714C158.475 75.1646 158.595 74.9822 158.766 74.8603C158.937 74.7385 159.148 74.686 159.356 74.7135H163.834C164.005 74.6838 164.181 74.718 164.329 74.8098C164.477 74.9016 164.587 75.0447 164.638 75.2122C167.845 83.3059 171.058 91.3961 174.279 99.4827C174.316 99.5995 174.342 99.7268 174.416 99.9815M161.537 80.2107C160.223 83.7181 158.909 87.1883 157.595 90.7434H165.511C164.171 87.1989 162.883 83.7181 161.537 80.2107Z" fill="white"/>
<path d="M79.452 100.024H74.1956V74.8143H78.9737C79.1419 74.8143 79.3364 75.0637 79.4573 75.2388C82.7373 79.9294 86.0104 84.6254 89.2764 89.3267C89.6706 89.8891 90.0701 90.441 90.559 91.1308V74.8514H95.7681V100.066C94.1912 100.066 92.6142 100.066 91.0373 100.066C90.8586 100.066 90.6431 99.7799 90.5116 99.5835C87.0073 94.5497 83.503 89.5142 79.9987 84.4768C79.8778 84.3017 79.7306 84.1426 79.4731 83.8507V100.024H79.452Z" fill="white"/>
<path d="M61.8849 74.8461H67.0835V100.003H61.8849V74.8461Z" fill="white"/>
<path d="M119.932 86.2067C119.932 86.0316 119.89 85.7132 119.564 85.7132C119.427 85.7132 119.296 85.7132 119.164 85.7132H118.507C117.335 85.7132 116.152 85.7132 114.922 85.7132H110.675V90.5949H114.912C114.912 91.863 114.912 93.1259 114.943 94.3092C114.943 95.6676 114.418 95.6729 113.598 95.8374C112.823 95.9504 112.036 95.9611 111.259 95.8692C109.114 95.6888 107.143 94.9884 105.681 93.2533C104.388 91.7304 104.005 89.8785 103.878 87.9471C103.652 84.1956 105.666 81.0491 109.135 79.9401C112.462 78.8788 115.653 79.367 118.728 80.9482C118.891 81.0384 119.064 81.1021 119.348 81.2348C119.348 79.749 119.348 78.3694 119.348 76.9898C119.388 76.7585 119.34 76.5204 119.213 76.3235C119.087 76.1266 118.891 75.9855 118.665 75.9286C115.377 74.5753 111.763 74.2481 108.289 74.9894C105.681 75.4916 103.307 76.8407 101.529 78.8311C98.5694 82.2536 98.007 86.3871 98.8533 90.7434C99.7889 95.7047 102.896 98.7027 107.605 100.013C111.642 101.128 116.541 100.661 119.438 99.106C119.562 99.0466 119.671 98.9585 119.756 98.8488C119.841 98.7392 119.899 98.611 119.926 98.4745C119.953 94.6435 119.953 90.0324 119.926 86.2067" fill="white"/>
<path d="M55.2092 106.747V65.9264L90.5695 46.787V68.102H95.7734V38L50 62.7799V112H95.7734V106.747H55.2092Z" fill="white"/>
</g>
<rect x="0.5" y="0.5" width="249" height="149" stroke="black"/>
<defs>
<clipPath id="clip0_3001_8">
<rect width="149" height="74" fill="white" transform="translate(50 38)"/>
</clipPath>
</defs>
</svg>
